STARTFONT 2.1
FONT -Adobe-Times-Bold-I-Normal--34-240-100-100-P-170-ISO8859-2
SIZE 24 100 100
FONTBOUNDINGBOX 39 37 -6 -7
COMMENT $XConsortium: timBI24.bdf,v 1.7 95/01/26 17:58:49 gildea Exp $
COMMENT 
COMMENT +
COMMENT  Copyright 1984-1989, 1994 Adobe Systems Incorporated.
COMMENT  Copyright 1988, 1994 Digital Equipment Corporation.
COMMENT
COMMENT  Adobe is a trademark of Adobe Systems Incorporated which may be
COMMENT  registered in certain jurisdictions.
COMMENT  Permission to use these trademarks is hereby granted only in
COMMENT  association with the images described in this file.
COMMENT
COMMENT  Permission to use, copy, modify, distribute and sell this software
COMMENT  and its documentation for any purpose and without fee is hereby
COMMENT  granted, provided that the above copyright notices appear in all
COMMENT  copies and that both those copyright notices and this permission
COMMENT  notice appear in supporting documentation, and that the names of
COMMENT  Adobe Systems and Digital Equipment Corporation not be used in
COMMENT  advertising or publicity pertaining to distribution of the software
COMMENT  without specific, written prior permission.  Adobe Systems and
COMMENT  Digital Equipment Corporation make no representations about the
COMMENT  suitability of this software for any purpose.  It is provided "as
COMMENT  is" without express or implied warranty.
COMMENT -
COMMENT  
COMMENT  Translation to ISO8859-2 by Cub Soft;  Petr.Kolar@vslib.cz
COMMENT  
STARTPROPERTIES 28
FOUNDRY "Adobe"
FAMILY_NAME "Times"
WEIGHT_NAME "Bold"
SLANT "I"
SETWIDTH_NAME "Normal"
ADD_STYLE_NAME ""
PIXEL_SIZE 34
POINT_SIZE 240
RESOLUTION_X 100
RESOLUTION_Y 100
SPACING "P"
AVERAGE_WIDTH 170
CHARSET_REGISTRY "ISO8859"
CHARSET_ENCODING "2"
CAP_HEIGHT 23
X_HEIGHT 15
FONT_ASCENT 27
FONT_DESCENT 7
FACE_NAME "Times Bold Italic"

STARTCHAR space
ENCODING 32
SWIDTH 250 0
DWIDTH 8 0
BBX 1 1 0 0
BITMAP
00
ENDCHAR
STARTCHAR exclam
ENCODING 33
SWIDTH 389 0
DWIDTH 13 0
BBX 10 23 2 0
BITMAP
0380
07c0
07c0
0fc0
0fc0
0f80
0f80
0f00
0f00
0e00
0e00
0c00
0c00
1800
1800
1800
0000
0000
7000
f800
f800
f800
7000
ENDCHAR
STARTCHAR quotedbl
ENCODING 34
SWIDTH 555 0
DWIDTH 19 0
BBX 13 11 5 12
BITMAP
7070
f8f8
f8f8
f8f8
f0f0
f0f0
e0e0
e0e0
c0c0
c0c0
8080
ENDCHAR
STARTCHAR numbersign
ENCODING 35
SWIDTH 500 0
DWIDTH 17 0
BBX 17 23 0 0
BITMAP
030c00
071c00
071c00
071c00
071c00
071c00
071c00
071c00
7fff80
7fff80
0e3800
0e3800
0e3800
0e3800
ffff00
ffff00
1c7000
1c7000
1c7000
1c7000
1c7000
1c7000
186000
ENDCHAR
STARTCHAR dollar
ENCODING 36
SWIDTH 500 0
DWIDTH 16 0
BBX 16 29 0 -4
BITMAP
0018
0018
01f0
07fc
0e3f
0c67
1c63
1c62
1ee2
1ec0
1fc0
1fc0
0fc0
07e0
03f0
01f8
01f8
037c
433c
433c
c638
e638
e630
3460
1fc0
0c00
0c00
1800
1800
ENDCHAR
STARTCHAR percent
ENCODING 37
SWIDTH 833 0
DWIDTH 27 0
BBX 25 24 1 0
BITMAP
00001000
07c07000
1ff3e000
3e3f6000
7c20c000
7820c000
f8218000
f8630000
f0430000
f0460000
f0c60000
f18c1f00
7b0c7f80
3e18f880
0031f080
0031e080
0063e080
0063e180
00c3c100
00c3c100
0183c300
0303c600
0301ec00
0200f800
ENDCHAR
STARTCHAR ampersand
ENCODING 38
SWIDTH 778 0
DWIDTH 26 0
BBX 22 23 2 0
BITMAP
001f00
007380
00f1c0
00e1c0
01e1c0
01c380
01c380
01c700
01ee00
01f800
01f000
07f1fc
1e7070
3c7860
7878e0
703cc0
f03d80
f03f00
f81f00
7c1f80
7fffc8
3fe3f8
0f81f0
ENDCHAR
STARTCHAR apostrophe
ENCODING 39
SWIDTH 333 0
DWIDTH 11 0
BBX 6 10 4 13
BITMAP
38
7c
7c
7c
3c
18
18
30
60
c0
ENDCHAR
STARTCHAR parenleft
ENCODING 40
SWIDTH 333 0
DWIDTH 11 0
BBX 10 29 3 -6
BITMAP
00c0
01c0
0380
0700
0e00
0c00
1c00
3800
3800
7800
7000
f000
f000
f000
e000
e000
e000
e000
e000
e000
e000
6000
6000
7000
3000
3000
1800
1800
0800
ENDCHAR
STARTCHAR parenright
ENCODING 41
SWIDTH 333 0
DWIDTH 11 0
BBX 10 29 -2 -6
BITMAP
0400
0600
0200
0300
0300
0380
0180
0180
01c0
01c0
01c0
01c0
01c0
01c0
01c0
03c0
03c0
03c0
0380
0780
0700
0f00
0e00
0c00
1c00
3800
7000
e000
c000
ENDCHAR
STARTCHAR asterisk
ENCODING 42
SWIDTH 500 0
DWIDTH 17 0
BBX 13 14 2 9
BITMAP
0300
0700
0700
e738
f278
7af0
0f80
0f80
7ef0
f278
e738
0700
0700
0600
ENDCHAR
STARTCHAR plus
ENCODING 43
SWIDTH 570 0
DWIDTH 19 0
BBX 17 17 1 0
BITMAP
01c000
01c000
01c000
01c000
01c000
01c000
01c000
ffff80
ffff80
ffff80
01c000
01c000
01c000
01c000
01c000
01c000
01c000
ENDCHAR
STARTCHAR comma
ENCODING 44
SWIDTH 250 0
DWIDTH 8 0
BBX 6 10 -1 -6
BITMAP
38
7c
7c
7c
3c
18
18
30
60
c0
ENDCHAR
STARTCHAR minus
ENCODING 45
SWIDTH 606 0
DWIDTH 20 0
BBX 16 3 2 7
BITMAP
ffff
ffff
ffff
ENDCHAR
STARTCHAR period
ENCODING 46
SWIDTH 250 0
DWIDTH 8 0
BBX 5 5 -1 0
BITMAP
70
f8
f8
f8
70
ENDCHAR
STARTCHAR slash
ENCODING 47
SWIDTH 278 0
DWIDTH 9 0
BBX 9 23 0 0
BITMAP
0180
0180
0180
0300
0300
0300
0600
0600
0600
0c00
0c00
1c00
1800
1800
3800
3000
3000
7000
6000
6000
e000
c000
c000
ENDCHAR
STARTCHAR zero
ENCODING 48
SWIDTH 500 0
DWIDTH 16 0
BBX 16 23 1 0
BITMAP
01f0
039c
0f0c
0f0e
1e0e
3e1f
3e1f
7c1f
7c1f
7c1f
f83e
f83e
f83e
f83c
f07c
f07c
f0f8
f0f8
e0f0
e1e0
61e0
7380
1f00
ENDCHAR
STARTCHAR one
ENCODING 49
SWIDTH 500 0
DWIDTH 16 0
BBX 14 23 0 0
BITMAP
003c
07f8
00f8
00f8
00f8
00f0
00f0
01f0
01f0
01e0
03e0
03e0
03e0
03c0
07c0
07c0
07c0
0780
0f80
0f80
0f00
1f80
fff0
ENDCHAR
STARTCHAR two
ENCODING 50
SWIDTH 500 0
DWIDTH 16 0
BBX 17 23 -1 0
BITMAP
007c00
01ff00
01ff00
031f80
060f80
040780
000780
000780
000f00
000f00
001e00
001c00
003800
007000
00e000
01c000
038000
070100
0e0700
1ffe00
3ffe00
7ffc00
fffc00
ENDCHAR
STARTCHAR three
ENCODING 51
SWIDTH 500 0
DWIDTH 16 0
BBX 15 23 0 0
BITMAP
00f0
03f8
03fc
063e
0c1e
081e
001e
003c
00f8
03e0
0fc0
03e0
01f0
00f0
00f8
0078
0078
0078
00f0
60f0
f1e0
ff80
7e00
ENDCHAR
STARTCHAR four
ENCODING 52
SWIDTH 500 0
DWIDTH 16 0
BBX 17 23 -1 0
BITMAP
000180
000380
000780
000f80
001f80
003700
006f00
00cf00
019f00
031e00
061e00
0c1e00
183e00
303c00
603c00
ffff00
fffe00
fffe00
007800
00f800
00f800
01f000
01f000
ENDCHAR
STARTCHAR five
ENCODING 53
SWIDTH 500 0
DWIDTH 16 0
BBX 15 23 0 0
BITMAP
07fe
07fe
07fc
0ffc
0c00
0c00
1c00
1f80
1fe0
3ff0
07f0
01f8
00f8
0078
0078
0038
0038
0038
0070
6070
f0e0
ff80
7e00
ENDCHAR
STARTCHAR six
ENCODING 54
SWIDTH 500 0
DWIDTH 16 0
BBX 16 23 1 0
BITMAP
0007
003e
00f8
01e0
07c0
0f80
1f00
1f00
3ff0
7e78
7c38
7c3c
f83c
f83c
f87c
f87c
f07c
f078
f0f8
70f0
70f0
39e0
1f80
ENDCHAR
STARTCHAR seven
ENCODING 55
SWIDTH 500 0
DWIDTH 16 0
BBX 15 23 2 0
BITMAP
3ffe
7ffe
7ffc
fffc
c038
8030
0070
0060
00e0
01c0
01c0
0380
0380
0700
0700
0e00
1c00
1c00
3800
3800
7000
7000
e000
ENDCHAR
STARTCHAR eight
ENCODING 56
SWIDTH 500 0
DWIDTH 16 0
BBX 16 23 0 0
BITMAP
00f8
03dc
0f0e
0e07
1e07
1e07
1f07
1f0f
0f8e
0fdc
07f0
03e0
0ff0
1cf8
787c
703c
f03e
f01e
f01e
703c
783c
3cf8
1fe0
ENDCHAR
STARTCHAR nine
ENCODING 57
SWIDTH 500 0
DWIDTH 16 0
BBX 16 23 0 0
BITMAP
01f8
079c
0f0e
0f0e
1f0f
1e0f
3e0f
3e1f
3e1f
3c1f
3c1f
3c3e
1c3e
1e7e
0ffc
00f8
00f8
01f0
03e0
0780
1f00
7c00
e000
ENDCHAR
STARTCHAR colon
ENCODING 58
SWIDTH 333 0
DWIDTH 11 0
BBX 8 15 2 0
BITMAP
0e
1f
1f
1f
0e
00
00
00
00
00
70
f8
f8
f8
70
ENDCHAR
STARTCHAR semicolon
ENCODING 59
SWIDTH 333 0
DWIDTH 11 0
BBX 9 21 1 -6
BITMAP
0700
0f80
0f80
0f80
0700
0000
0000
0000
0000
0000
0000
3800
7c00
7c00
7c00
3c00
1800
1800
3000
6000
c000
ENDCHAR
STARTCHAR less
ENCODING 60
SWIDTH 570 0
DWIDTH 19 0
BBX 17 17 1 0
BITMAP
000180
000780
001f80
00ff00
03fc00
0fe000
3f8000
fe0000
f00000
fe0000
3f8000
0fe000
03fc00
00ff00
001f80
000780
000180
ENDCHAR
STARTCHAR equal
ENCODING 61
SWIDTH 570 0
DWIDTH 19 0
BBX 15 9 2 4
BITMAP
fffe
fffe
fffe
0000
0000
0000
fffe
fffe
fffe
ENDCHAR
STARTCHAR greater
ENCODING 62
SWIDTH 570 0
DWIDTH 19 0
BBX 17 17 1 0
BITMAP
c00000
f00000
fc0000
7f8000
1fe000
03f800
00fe00
003f80
000780
003f80
00fe00
03f800
1fe000
7f8000
fc0000
f00000
c00000
ENDCHAR
STARTCHAR question
ENCODING 63
SWIDTH 500 0
DWIDTH 16 0
BBX 12 23 3 0
BITMAP
0f80
39e0
30f0
78f0
78f0
30f0
01e0
01e0
03c0
0780
0700
0e00
0800
1800
1000
1000
0000
0000
7000
f800
f800
f800
7000
ENDCHAR
STARTCHAR at
ENCODING 64
SWIDTH 832 0
DWIDTH 28 0
BBX 28 28 0 -5
BITMAP
001ff800
007e1e00
01e00700
03c00180
070000c0
0e000060
1e000060
1c039c30
3c0fdc30
381e7c10
783c3c10
78783810
f0783810
f0f03810
f0f07830
f0f07020
f0f07060
f0f0f0c0
f0f9e180
707ff300
787efe00
383c7800
3c000000
1c000000
0e000000
03800000
01e01c00
003ff000
ENDCHAR
STARTCHAR A
ENCODING 65
SWIDTH 667 0
DWIDTH 21 0
BBX 21 23 -1 0
BITMAP
000200
000600
000700
000f00
001f00
001f00
003f00
002f00
006f80
004f80
00cf80
018f80
018780
030780
0207c0
07ffc0
0fffc0
0c07c0
1807c0
1803c0
3003e0
7007e0
fc1ff8
ENDCHAR
STARTCHAR B
ENCODING 66
SWIDTH 667 0
DWIDTH 21 0
BBX 22 23 -1 0
BITMAP
07ffe0
01f1f8
01f07c
01f03c
01f03c
01f03c
03e03c
03e07c
03e0f8
03e1f0
07ff80
07ffc0
07c3f0
07c1f0
0f80f8
0f80f8
0f80f8
0f80f8
1f00f0
1f01f0
1f03e0
3f0f80
fffe00
ENDCHAR
STARTCHAR C
ENCODING 67
SWIDTH 667 0
DWIDTH 22 0
BBX 21 23 2 0
BITMAP
003fc8
00fff8
03f078
07c030
0f8030
1f0030
3f0020
3e0020
7e0000
7c0000
7c0000
f80000
f80000
f80000
f80000
f80000
f80000
f80000
7c0040
7c0180
3f0700
0ffc00
03f000
ENDCHAR
STARTCHAR D
ENCODING 68
SWIDTH 722 0
DWIDTH 23 0
BBX 24 23 -1 0
BITMAP
0fffc0
03f0f0
01f078
01f03c
03e03e
03e01e
03e01f
07e01f
07c01f
07c01f
07c01f
0fc01f
0f801f
0f803e
0f803e
1f807c
1f007c
1f00f8
1f00f0
3f01e0
3e07c0
7f1f00
fffc00
ENDCHAR
STARTCHAR E
ENCODING 69
SWIDTH 667 0
DWIDTH 22 0
BBX 22 23 -1 0
BITMAP
07fffc
01f83c
01f01c
01f018
01f018
03e018
03e010
03e080
03e080
07e180
07c780
07ff80
07c700
0f8300
0f8300
0f8200
0f8000
1f0010
1f0030
1f0070
3f00e0
3f03e0
ffffe0
ENDCHAR
STARTCHAR F
ENCODING 70
SWIDTH 667 0
DWIDTH 22 0
BBX 22 23 0 0
BITMAP
07fffc
01f83c
01f01c
01f018
01f018
03f018
03e010
03e080
03e080
07e180
07c780
07ff80
07c700
0f8300
0f8300
0f8200
0f8000
1f0000
1f0000
1f0000
3f0000
3f0000
ffc000
ENDCHAR
STARTCHAR G
ENCODING 71
SWIDTH 722 0
DWIDTH 24 0
BBX 23 23 1 0
BITMAP
003fe4
00fcfc
03f03c
07c01c
0f8018
1f0008
3f0008
3e0000
7e0000
7c0000
7c0000
f80000
f803fe
f800f8
f800f8
f800f0
f801f0
7c01f0
7c01e0
3e03e0
3f07c0
0fffc0
03ff00
ENDCHAR
STARTCHAR H
ENCODING 72
SWIDTH 778 0
DWIDTH 25 0
BBX 27 23 -1 0
BITMAP
07fe7fe0
01f81f80
01f01f00
01f01f00
01f01f00
01e01e00
01e01e00
03e03e00
03e03e00
03c03c00
03fffc00
03fffc00
07c07c00
07807800
07807800
0f80f800
0f80f800
0f80f800
0f00f000
1f01f000
1f01f000
3f03f000
ffc7fc00
ENDCHAR
STARTCHAR I
ENCODING 73
SWIDTH 389 0
DWIDTH 13 0
BBX 15 23 -1 0
BITMAP
07fe
01f8
01f8
01f0
01f0
01f0
03e0
03e0
03e0
03e0
07c0
07c0
07c0
07c0
0f80
0f80
0f80
0f80
1f00
1f00
1f00
3f00
ffc0
ENDCHAR
STARTCHAR J
ENCODING 74
SWIDTH 500 0
DWIDTH 17 0
BBX 18 26 0 -3
BITMAP
00ffc0
003f00
003f00
003e00
003e00
003e00
003e00
007c00
007c00
007c00
007c00
00f800
00f800
00f800
00f800
01f000
01f000
01f000
01f000
01e000
61e000
f3e000
f3c000
e3c000
7f8000
3e0000
ENDCHAR
STARTCHAR K
ENCODING 75
SWIDTH 667 0
DWIDTH 22 0
BBX 24 23 -1 0
BITMAP
07fe7f
01f81c
01f018
01f030
01e060
03e0c0
03e180
03c300
03c600
07dc00
07fc00
07fe00
07de00
0f9f00
0f9f00
0f9f80
0f0f80
1f0fc0
1f07c0
1e07e0
3e03e0
3f03f0
ffcff8
ENDCHAR
STARTCHAR L
ENCODING 76
SWIDTH 611 0
DWIDTH 20 0
BBX 20 23 -1 0
BITMAP
07fe00
01f800
01f000
01f000
01f000
03e000
03e000
03e000
03e000
07e000
07c000
07c000
07c000
0f8000
0f8000
0f8000
0f8000
1f0010
1f0030
1f0070
3f00e0
3f03e0
ffffe0
ENDCHAR
STARTCHAR M
ENCODING 77
SWIDTH 889 0
DWIDTH 29 0
BBX 31 23 -1 0
BITMAP
07f001fe
01f001fc
01f003f8
01f003f8
01f807f0
03f80df0
03f80df0
03781bf0
02781be0
067833e0
067867c0
067867c0
0c78c7c0
0c7d87c0
0c7d8f80
0c7f0f80
187f0f80
183e0f80
183c1f00
383c1f00
30381f00
78303f00
fe30ffc0
ENDCHAR
STARTCHAR N
ENCODING 78
SWIDTH 722 0
DWIDTH 24 0
BBX 26 23 -1 0
BITMAP
07e01fc0
03f00f80
01f00700
01f80700
01f80600
037c0600
037c0600
033e0c00
023e0c00
063f0c00
061f0c00
061f1800
0c0f9800
0c0f9800
0c07d000
0c07f000
1803f000
1803f000
1803f000
3801e000
3801e000
7c00e000
fe00e000
ENDCHAR
STARTCHAR O
ENCODING 79
SWIDTH 722 0
DWIDTH 23 0
BBX 22 23 1 0
BITMAP
001f80
00ffe0
01e0f0
03c078
078078
0f007c
1f007c
3e007c
3e007c
3e007c
7c00fc
7c00f8
fc00f8
f801f0
f801f0
f801f0
f803e0
f803c0
780780
780f00
3c1e00
1ffc00
07e000
ENDCHAR
STARTCHAR P
ENCODING 80
SWIDTH 611 0
DWIDTH 20 0
BBX 21 23 -1 0
BITMAP
07ffc0
01fff0
01f1f8
01f0f8
03e0f8
03e0f8
03e0f8
03e1f0
07c1f0
07c3e0
07cfc0
07ff00
0f8000
0f8000
0f8000
0f8000
0f8000
0f0000
1f0000
1f0000
1f0000
3f8000
ffc000
ENDCHAR
STARTCHAR Q
ENCODING 81
SWIDTH 722 0
DWIDTH 24 0
BBX 22 30 1 -7
BITMAP
001f80
00ffe0
01e0f0
03c078
078078
0f007c
1f007c
3e007c
3e007c
3e007c
7c00fc
7c00f8
fc00f8
f801f0
f801f0
f801f0
f803e0
f803c0
780780
780f00
3c1e00
1ffc00
07e000
030000
060000
0f8008
1ff870
3fffe0
71ffc0
c01f00
ENDCHAR
STARTCHAR R
ENCODING 82
SWIDTH 667 0
DWIDTH 22 0
BBX 21 23 -1 0
BITMAP
07ffc0
01fff0
01f1f8
01f0f8
03e0f8
03e0f8
03e0f8
03e1f0
07c1f0
07c3e0
07cfc0
07ff00
0fbe00
0fbf00
0f9f00
0f9f80
0f8f80
0f0f80
1f07c0
1f07c0
1f07e0
3f03e0
ffc3f8
ENDCHAR
STARTCHAR S
ENCODING 83
SWIDTH 556 0
DWIDTH 18 0
BBX 17 23 1 0
BITMAP
03f880
0ffd80
1f0f80
1e0700
3c0300
3e0300
3e0200
3f0000
1fc000
1fe000
0ff000
07f800
03fc00
00fc00
007e00
003e00
801e00
c01e00
c01e00
e03c00
f07c00
fff800
dfe000
ENDCHAR
STARTCHAR T
ENCODING 84
SWIDTH 611 0
DWIDTH 20 0
BBX 19 23 2 0
BITMAP
3fffe0
3cf9e0
30f8e0
70f8c0
61f0c0
61f080
41f080
01f000
03e000
03e000
03e000
03e000
07c000
07c000
07c000
078000
0f8000
0f8000
0f8000
1f0000
1f0000
3f8000
ffe000
ENDCHAR
STARTCHAR U
ENCODING 85
SWIDTH 722 0
DWIDTH 24 0
BBX 23 23 2 0
BITMAP
7fe07e
1f803c
1f8018
1f0018
1f0030
3f0030
3e0030
3e0060
3e0060
7e0060
7c00c0
7c00c0
7c00c0
f80180
f80180
f80180
f80300
f80300
f80600
7c0e00
7e1c00
3ff800
0fe000
ENDCHAR
STARTCHAR V
ENCODING 86
SWIDTH 667 0
DWIDTH 22 0
BBX 21 23 2 0
BITMAP
ffc1f8
3f0070
3e0060
3f00e0
1f00c0
1f0180
1f0180
1f0300
1f0300
1f0600
0f0c00
0f8c00
0f9800
0f9800
0fb000
0fe000
0fe000
07c000
07c000
078000
070000
070000
060000
ENDCHAR
STARTCHAR W
ENCODING 87
SWIDTH 889 0
DWIDTH 29 0
BBX 28 23 2 0
BITMAP
ff9ff3f0
3f07c0e0
3e07c0c0
3e07c080
3e07c180
1e07c100
1f0fc300
1f0fc300
1f1bc200
1f1bc600
1f33c400
1f33ec00
0f63e800
0f63f800
0f41f000
0fc1f000
0f81f000
0f81e000
0f01e000
0f01c000
0601c000
06018000
04008000
ENDCHAR
STARTCHAR X
ENCODING 88
SWIDTH 667 0
DWIDTH 22 0
BBX 24 23 -1 0
BITMAP
0ffc7f
03f01c
01f018
01f030
01f060
00f8c0
00f980
00fb00
007e00
007c00
007c00
007c00
007e00
007e00
00fe00
019f00
031f00
061f00
0c0f80
180f80
300f80
780fe0
fc3ff0
ENDCHAR
STARTCHAR Y
ENCODING 89
SWIDTH 611 0
DWIDTH 20 0
BBX 19 23 2 0
BITMAP
ff8fe0
7e03c0
3e0380
3e0300
1e0600
1f0600
1f0c00
0f1800
0f9800
0fb000
0fe000
07c000
07c000
07c000
0f8000
0f8000
0f8000
0f8000
1f0000
1f0000
1f0000
3f0000
ffc000
ENDCHAR
STARTCHAR Z
ENCODING 90
SWIDTH 611 0
DWIDTH 20 0
BBX 20 23 -1 0
BITMAP
0ffff0
0fc3e0
0e07e0
1c07c0
180f80
101f80
003f00
003e00
007e00
00fc00
00f800
01f800
03f000
03e000
07e000
0fc000
0f8000
1f8040
3f00c0
3e01c0
7e0380
fc1f80
ffff80
ENDCHAR
STARTCHAR bracketleft
ENCODING 91
SWIDTH 333 0
DWIDTH 11 0
BBX 13 28 1 -5
BITMAP
03f8
03c0
0380
0780
0700
0700
0700
0f00
0f00
0e00
0e00
0e00
1e00
1c00
1c00
1c00
3c00
3c00
3800
3800
7800
7800
7000
7000
7000
f000
f000
fe00
ENDCHAR
STARTCHAR backslash
ENCODING 92
SWIDTH 278 0
DWIDTH 9 0
BBX 15 23 0 0
BITMAP
f000
7000
7800
3800
3c00
1c00
1e00
0e00
0700
0700
0380
0380
01c0
01c0
00e0
00f0
0070
0078
0038
003c
001c
001e
000e
ENDCHAR
STARTCHAR bracketright
ENCODING 93
SWIDTH 333 0
DWIDTH 11 0
BBX 13 28 -3 -5
BITMAP
03f8
0078
0070
0070
0070
00f0
00f0
00e0
00e0
01e0
01e0
01c0
01c0
01c0
03c0
0380
0380
0380
0780
0780
0700
0700
0700
0f00
0e00
0e00
1e00
fe00
ENDCHAR
STARTCHAR asciicircum
ENCODING 94
SWIDTH 570 0
DWIDTH 19 0
BBX 15 13 2 10
BITMAP
07c0
07c0
0fe0
0ee0
1ef0
1c70
3c78
3838
783c
701c
f01e
e00e
e00e
ENDCHAR
STARTCHAR underscore
ENCODING 95
SWIDTH 500 0
DWIDTH 17 0
BBX 17 1 0 -4
BITMAP
ffff80
ENDCHAR
STARTCHAR grave
ENCODING 96
SWIDTH 333 0
DWIDTH 11 0
BBX 7 6 2 17
BITMAP
e0
f0
f8
3c
0e
06
ENDCHAR
STARTCHAR a
ENCODING 97
SWIDTH 500 0
DWIDTH 16 0
BBX 14 15 0 0
BITMAP
039c
0fdc
1e7c
3c3c
7838
7878
f878
f078
f0f0
f0f0
f0f4
f1ec
7f78
7e70
1c60
ENDCHAR
STARTCHAR b
ENCODING 98
SWIDTH 500 0
DWIDTH 16 0
BBX 14 23 1 0
BITMAP
0f00
3f00
0f00
0e00
0e00
1e00
1e00
1c00
3de0
3ff8
3e78
3c3c
783c
783c
783c
783c
f078
f078
f0f0
f0e0
f1c0
ff80
7e00
ENDCHAR
STARTCHAR c
ENCODING 99
SWIDTH 444 0
DWIDTH 14 0
BBX 13 15 1 0
BITMAP
01f0
07f8
1e78
3c78
3c30
7800
7800
f000
f000
f000
f020
f060
78c0
7f80
1e00
ENDCHAR
STARTCHAR d
ENCODING 100
SWIDTH 500 0
DWIDTH 16 0
BBX 17 23 0 0
BITMAP
000380
001f80
000780
000780
000700
000f00
000f00
000f00
03de00
0ffe00
1f3e00
3c1e00
7c1e00
783c00
f83c00
f03c00
f03800
f07800
f07800
f0f600
7ffc00
7f7800
1e3000
ENDCHAR
STARTCHAR e
ENCODING 101
SWIDTH 444 0
DWIDTH 14 0
BBX 12 15 1 0
BITMAP
03e0
0ff0
1e70
3c70
38f0
78e0
71c0
f780
fc00
f000
f020
f060
78c0
7f80
1e00
ENDCHAR
STARTCHAR f
ENCODING 102
SWIDTH 333 0
DWIDTH 11 0
BBX 20 30 -5 -7
BITMAP
0003e0
000770
000e70
000e60
001e00
001c00
003c00
003c00
003c00
01ff80
007c00
007800
007800
007800
00f800
00f000
00f000
00f000
00f000
01e000
01e000
01e000
03c000
03c000
038000
078000
670000
e70000
ee0000
7c0000
ENDCHAR
STARTCHAR g
ENCODING 103
SWIDTH 500 0
DWIDTH 16 0
BBX 18 22 -1 -7
BITMAP
01f800
07ffc0
0f8fc0
0f0700
1f0700
1e0700
1e0e00
1f3e00
0ffc00
07e000
0e0000
1c0000
1f8000
1ff000
0ff800
1ff800
707c00
e01c00
e01c00
f03c00
787800
1fe000
ENDCHAR
STARTCHAR h
ENCODING 104
SWIDTH 556 0
DWIDTH 18 0
BBX 16 23 1 0
BITMAP
0380
3f80
1f80
0780
0f00
0f00
0f00
1f00
1e3c
1e7e
1ede
3f1e
3e1e
3e3c
3c3c
7c3c
7878
7878
7879
f0f3
f0f6
f0fc
f078
ENDCHAR
STARTCHAR i
ENCODING 105
SWIDTH 278 0
DWIDTH 9 0
BBX 8 23 1 0
BITMAP
06
0f
0f
0f
06
00
00
00
1e
fe
3c
3c
3c
78
78
78
78
f0
f2
f6
fc
f8
70
ENDCHAR
STARTCHAR j
ENCODING 106
SWIDTH 278 0
DWIDTH 9 0
BBX 14 30 -4 -7
BITMAP
0018
003c
003c
003c
0018
0000
0000
0000
0078
03f8
00f0
00f0
00f0
01e0
01e0
01e0
01e0
03c0
03c0
03c0
03c0
07c0
0780
0780
0780
0f00
4f00
ee00
fc00
7800
ENDCHAR
STARTCHAR k
ENCODING 107
SWIDTH 500 0
DWIDTH 16 0
BBX 16 23 1 0
BITMAP
0380
1f80
0f80
0780
0700
0f00
0f00
0f00
0e3f
0e1c
1e38
1e30
1e60
1cc0
3d80
3f80
3fc0
3bc0
79e0
79e2
70f6
f0fc
f078
ENDCHAR
STARTCHAR l
ENCODING 108
SWIDTH 278 0
DWIDTH 9 0
BBX 9 23 1 0
BITMAP
0380
3f80
1f80
0780
0f00
0f00
0f00
1e00
1e00
1e00
1e00
3c00
3c00
3c00
7c00
7800
7800
7800
f200
f600
fc00
f800
7000
ENDCHAR
STARTCHAR m
ENCODING 109
SWIDTH 778 0
DWIDTH 25 0
BBX 23 15 1 0
BITMAP
1c7c7c
fdfdfe
3fbfbe
3f1f1e
3e1e1e
3c3c3c
3c3c3c
3c3c3c
787878
787878
787878
f0f0f2
f0f0f6
f0f0fc
f0f078
ENDCHAR
STARTCHAR n
ENCODING 110
SWIDTH 556 0
DWIDTH 18 0
BBX 15 15 1 0
BITMAP
1e3c
fe7e
1cfe
3d9e
3e1e
3c3c
3c3c
3c3c
7878
7878
7878
f0f2
f0f6
f0fc
f078
ENDCHAR
STARTCHAR o
ENCODING 111
SWIDTH 500 0
DWIDTH 16 0
BBX 15 15 1 0
BITMAP
01f0
073c
1e1c
1c1e
3c1e
7c1e
783e
f83e
f83c
f07c
f078
f070
70f0
79e0
1f80
ENDCHAR
STARTCHAR p
ENCODING 112
SWIDTH 500 0
DWIDTH 16 0
BBX 19 22 -3 -7
BITMAP
01e780
0fefc0
03ebe0
03f1e0
03e1e0
03c1e0
03c3e0
03c3e0
0783c0
0787c0
078780
078700
0f0e00
0fbc00
0ff000
0f0000
1e0000
1e0000
1e0000
3e0000
3e0000
ff8000
ENDCHAR
STARTCHAR q
ENCODING 113
SWIDTH 500 0
DWIDTH 16 0
BBX 15 22 0 -7
BITMAP
01ee
077e
0e3e
1c3e
3c3c
7c3c
783c
f87c
f878
f078
f0f8
f1f0
73f0
7ef0
1df0
01e0
01e0
01e0
03e0
03c0
07c0
1ff0
ENDCHAR
STARTCHAR r
ENCODING 114
SWIDTH 389 0
DWIDTH 13 0
BBX 14 15 0 0
BITMAP
0f18
7f3c
1e7c
1efc
1f98
1f00
1e00
3e00
3c00
3c00
3c00
7800
7800
7800
f800
ENDCHAR
STARTCHAR s
ENCODING 115
SWIDTH 389 0
DWIDTH 13 0
BBX 11 15 1 0
BITMAP
0fa0
1de0
3860
3c60
3c20
3e00
1f00
1f80
0f80
07c0
87c0
c3c0
c380
f700
be00
ENDCHAR
STARTCHAR t
ENCODING 116
SWIDTH 278 0
DWIDTH 9 0
BBX 9 20 1 0
BITMAP
0100
0300
0700
0e00
3e00
7f80
ff80
3c00
3c00
3c00
7800
7800
7800
7800
f000
f200
f600
fc00
f800
7000
ENDCHAR
STARTCHAR u
ENCODING 117
SWIDTH 556 0
DWIDTH 18 0
BBX 15 15 1 0
BITMAP
1e1e
fe1e
3c1e
3c3c
3c3c
3c3c
787c
7878
78f8
70f8
f0f0
f1f2
f376
fe7c
7878
ENDCHAR
STARTCHAR v
ENCODING 118
SWIDTH 444 0
DWIDTH 15 0
BBX 14 15 1 0
BITMAP
1c18
fc3c
3c3c
3c18
3c18
3c30
1e30
1e60
1e60
1ec0
1f80
1f00
1e00
1c00
1800
ENDCHAR
STARTCHAR w
ENCODING 119
SWIDTH 667 0
DWIDTH 22 0
BBX 21 15 1 0
BITMAP
1c0830
fc1878
3c1878
3c3838
1e7c30
1e7c60
1edc60
1ebcc0
1f3d80
1f3d80
1e3f00
1c3e00
1c3c00
183800
183000
ENDCHAR
STARTCHAR x
ENCODING 120
SWIDTH 500 0
DWIDTH 16 0
BBX 16 15 0 0
BITMAP
0f06
3f8f
079f
03b6
03e0
03c0
01c0
01c0
03e0
03e0
06e0
6cf6
f8fc
f0f8
6070
ENDCHAR
STARTCHAR y
ENCODING 121
SWIDTH 444 0
DWIDTH 15 0
BBX 16 22 -2 -7
BITMAP
0386
1f8f
078f
0787
03c3
03c2
03c6
03c4
03cc
01c8
01d8
01f0
01f0
01e0
01e0
01c0
0180
0180
6300
fe00
fc00
7000
ENDCHAR
STARTCHAR z
ENCODING 122
SWIDTH 389 0
DWIDTH 13 0
BBX 14 17 -1 -2
BITMAP
1ffc
1ffc
3ff8
2030
0060
00c0
0180
0300
0600
0c00
1800
3000
7c10
ff38
efb8
87f0
01e0
ENDCHAR
STARTCHAR braceleft
ENCODING 123
SWIDTH 348 0
DWIDTH 12 0
BBX 12 30 2 -6
BITMAP
0070
01c0
0380
0780
0700
0700
0700
0e00
0e00
0e00
0e00
1c00
3c00
f800
6000
3000
3800
3800
3800
7800
7800
7000
7000
7000
f000
e000
e000
e000
7000
1800
ENDCHAR
STARTCHAR bar
ENCODING 124
SWIDTH 220 0
DWIDTH 7 0
BBX 3 23 2 0
BITMAP
e0
e0
e0
e0
e0
e0
e0
e0
e0
e0
e0
e0
e0
e0
e0
e0
e0
e0
e0
e0
e0
e0
e0
ENDCHAR
STARTCHAR braceright
ENCODING 125
SWIDTH 348 0
DWIDTH 12 0
BBX 12 30 -2 -6
BITMAP
0180
00e0
0070
0070
0070
00f0
00e0
00e0
00e0
01e0
01e0
01c0
01c0
00e0
00f0
01e0
03c0
0380
0380
0700
0700
0700
0700
0e00
0e00
0e00
1e00
1c00
3800
e000
ENDCHAR
STARTCHAR asciitilde
ENCODING 126
SWIDTH 570 0
DWIDTH 19 0
BBX 17 6 1 6
BITMAP
0f0000
3f8300
7fc780
f1ff00
60fe00
007800
ENDCHAR
STARTCHAR nobreakspace
ENCODING 160
SWIDTH 250 0
DWIDTH 8 0
BBX 1 1 0 0
BITMAP
00
ENDCHAR
STARTCHAR Aogonek
ENCODING 161
SWIDTH 667 0
DWIDTH 21 0
BBX 21 30 -1 -7
BITMAP
000200
000600
000700
000f00
001f00
001f00
003f00
002f00
006f80
004f80
00cf80
018f80
018780
030780
0207c0
07ffc0
0fffc0
0c07c0
1807c0
1803c0
3003e0
7007e0
fc1ff8
003000
006000
00c000
00c000
00cc00
00fc00
007800
ENDCHAR
STARTCHAR breve
ENCODING 162
SWIDTH 333 0
DWIDTH 11 0
BBX 10 5 1 18
BITMAP
c0c0
c0c0
e1c0
7f80
1e00
ENDCHAR
STARTCHAR Lstroke
ENCODING 163
SWIDTH 611 0
DWIDTH 20 0
BBX 20 23 -1 0
BITMAP
07fe00
01f800
01f000
01f000
01f000
03e000
03e000
03e600
03ee00
07fc00
07f800
0fe000
3fc000
7f8000
6f8000
0f8000
0f8000
1f0010
1f0030
1f0070
3f00e0
3f03e0
ffffe0
ENDCHAR
STARTCHAR currency
ENCODING 164
SWIDTH 500 0
DWIDTH 17 0
BBX 17 16 0 4
BITMAP
67f300
ffff80
ffff80
7c1f00
780f00
f00780
f00780
e00380
e00380
f00780
f00780
780f00
7c1f00
ffff80
ffff80
67f300
ENDCHAR
STARTCHAR Lcaron
ENCODING 165
SWIDTH 660 0
DWIDTH 22 0
BBX 22 26 -1 0
BITMAP
000038
00007c
00007c
07fe7c
01f83c
01f018
01f018
01f030
03e060
03e0c0
03e000
03e000
07e000
07c000
07c000
07c000
0f8000
0f8000
0f8000
0f8000
1f0010
1f0030
1f0070
3f00e0
3f03e0
ffffe0
ENDCHAR
STARTCHAR Sacute
ENCODING 166
SWIDTH 556 0
DWIDTH 18 0
BBX 17 30 1 0
BITMAP
000380
000780
000f80
001e00
003800
003000
000000
03f880
0ffd80
1f0f80
1e0700
3c0300
3e0300
3e0200
3f0000
1fc000
1fe000
0ff000
07f800
03fc00
00fc00
007e00
003e00
801e00
c01e00
c01e00
e03c00
f07c00
fff800
dfe000
ENDCHAR
STARTCHAR section
ENCODING 167
SWIDTH 500 0
DWIDTH 17 0
BBX 13 28 2 -5
BITMAP
07c0
0e60
18f0
18f0
1860
1c00
1e00
0f00
0f80
3fc0
67e0
c3f0
e1f0
f0f8
f878
7c30
7e30
3f60
1fc0
0f00
0780
03c0
01c0
61c0
f1c0
f180
6700
3e00
ENDCHAR
STARTCHAR diaeresis
ENCODING 168
SWIDTH 333 0
DWIDTH 11 0
BBX 11 4 2 17
BITMAP
60c0
f1e0
f1e0
60c0
ENDCHAR
STARTCHAR Scaron
ENCODING 169
SWIDTH 556 0
DWIDTH 18 0
BBX 17 30 1 0
BITMAP
030300
018700
01ce00
00fc00
00f800
007000
000000
03f880
0ffd80
1f0f80
1e0700
3c0300
3e0300
3e0200
3f0000
1fc000
1fe000
0ff000
07f800
03fc00
00fc00
007e00
003e00
801e00
c01e00
c01e00
e03c00
f07c00
fff800
dfe000
ENDCHAR
STARTCHAR Scedilla
ENCODING 170
SWIDTH 556 0
DWIDTH 18 0
BBX 17 30 1 -7
BITMAP
03f880
0ffd80
1f0f80
1e0700
3c0300
3e0300
3e0200
3f0000
1fc000
1fe000
0ff000
07f800
03fc00
00fc00
007e00
003e00
801e00
c01e00
c01e00
e03c00
f07c00
fff800
dfe000
008000
018000
03e000
007000
043000
063000
03e000
ENDCHAR
STARTCHAR Tcaron
ENCODING 171
SWIDTH 611 0
DWIDTH 20 0
BBX 19 30 2 0
BITMAP
018180
00c380
00e700
007e00
007c00
003800
000000
3fffe0
3cf9e0
30f8e0
70f8c0
61f0c0
61f080
41f080
01f000
03e000
03e000
03e000
03e000
07c000
07c000
07c000
078000
0f8000
0f8000
0f8000
1f0000
1f0000
3f8000
ffe000
ENDCHAR
STARTCHAR Zacute
ENCODING 172
SWIDTH 611 0
DWIDTH 20 0
BBX 20 30 -1 0
BITMAP
0000e0
0001e0
0003e0
000780
000e00
000c00
000000
0ffff0
0fc3e0
0e07e0
1c07c0
180f80
101f80
003f00
003e00
007e00
00fc00
00f800
01f800
03f000
03e000
07e000
0fc000
0f8000
1f8040
3f00c0
3e01c0
7e0380
fc1f80
ffff80
ENDCHAR
STARTCHAR hyphen
ENCODING 173
SWIDTH 333 0
DWIDTH 11 0
BBX 9 4 1 5
BITMAP
7f80
ff80
ff80
ff00
ENDCHAR
STARTCHAR Zcaron
ENCODING 174
SWIDTH 611 0
DWIDTH 20 0
BBX 20 30 -1 0
BITMAP
00c0c0
0061c0
007380
003f00
003e00
001c00
000000
0ffff0
0fc3e0
0e07e0
1c07c0
180f80
101f80
003f00
003e00
007e00
00fc00
00f800
01f800
03f000
03e000
07e000
0fc000
0f8000
1f8040
3f00c0
3e01c0
7e0380
fc1f80
ffff80
ENDCHAR
STARTCHAR Zabovedot
ENCODING 175
SWIDTH 611 0
DWIDTH 20 0
BBX 20 28 -1 0
BITMAP
000c00
001e00
001e00
000c00
000000
0ffff0
0fc3e0
0e07e0
1c07c0
180f80
101f80
003f00
003e00
007e00
00fc00
00f800
01f800
03f000
03e000
07e000
0fc000
0f8000
1f8040
3f00c0
3e01c0
7e0380
fc1f80
ffff80
ENDCHAR
STARTCHAR degree
ENCODING 176
SWIDTH 400 0
DWIDTH 13 0
BBX 10 10 2 13
BITMAP
1e00
7f80
7380
e1c0
c0c0
c0c0
e1c0
7380
7f80
1e00
ENDCHAR
STARTCHAR aogonek
ENCODING 177
SWIDTH 500 0
DWIDTH 16 0
BBX 14 22 0 -7
BITMAP
039c
0fdc
1e7c
3c3c
7838
7878
f878
f078
f0f0
f0f0
f0f4
f1ec
7f78
7e70
1c60
0300
0600
0c00
0c00
0cc0
0fc0
0780
ENDCHAR
STARTCHAR ogonek
ENCODING 178
SWIDTH 333 0
DWIDTH 11 0
BBX 6 7 3 -5
BITMAP
30
60
c0
c0
cc
fc
78
ENDCHAR
STARTCHAR lstroke
ENCODING 179
SWIDTH 278 0
DWIDTH 9 0
BBX 11 23 0 0
BITMAP
01c0
0fc0
07c0
07c0
0780
0780
0780
0f00
0f60
1fc0
1f80
7f00
fe00
1e00
3e00
3c00
3c00
3c00
7900
7b00
7e00
7c00
3800
ENDCHAR
STARTCHAR acute
ENCODING 180
SWIDTH 333 0
DWIDTH 11 0
BBX 7 6 3 17
BITMAP
0e
1e
3e
78
e0
c0
ENDCHAR
STARTCHAR lcaron
ENCODING 181
SWIDTH 480 0
DWIDTH 16 0
BBX 16 26 1 0
BITMAP
000e
001f
001f
039f
3f8f
1f86
0786
0f0c
0f18
0f30
1e00
1e00
1e00
1e00
3c00
3c00
3c00
7c00
7800
7800
7800
f200
f600
fc00
f800
7000
ENDCHAR
STARTCHAR sacute
ENCODING 182
SWIDTH 389 0
DWIDTH 13 0
BBX 13 22 1 0
BITMAP
0038
0078
00f8
01e0
0380
0300
0000
0fa0
1de0
3860
3c60
3c20
3e00
1f00
1f80
0f80
07c0
87c0
c3c0
c380
f700
be00
ENDCHAR
STARTCHAR caron
ENCODING 183
SWIDTH 333 0
DWIDTH 11 0
BBX 10 6 1 17
BITMAP
c0c0
61c0
7380
3f00
3e00
1c00
ENDCHAR
STARTCHAR cedilla
ENCODING 184
SWIDTH 333 0
DWIDTH 11 0
BBX 7 7 0 -7
BITMAP
10
30
7c
0e
86
c6
7c
ENDCHAR
STARTCHAR scaron
ENCODING 185
SWIDTH 389 0
DWIDTH 13 0
BBX 12 22 1 0
BITMAP
3030
1870
1ce0
0fc0
0f80
0700
0000
0fa0
1de0
3860
3c60
3c20
3e00
1f00
1f80
0f80
07c0
87c0
c3c0
c380
f700
be00
ENDCHAR
STARTCHAR scedilla
ENCODING 186
SWIDTH 389 0
DWIDTH 13 0
BBX 11 22 1 -7
BITMAP
0fa0
1de0
3860
3c60
3c20
3e00
1f00
1f80
0f80
07c0
87c0
c3c0
c380
f700
be00
0400
0c00
1f00
0380
2180
3180
1f00
ENDCHAR
STARTCHAR tcaron
ENCODING 187
SWIDTH 450 0
DWIDTH 15 0
BBX 15 26 1 0
BITMAP
001c
003e
003e
003e
001e
000c
010c
0318
0730
0e60
3e00
7f80
ff80
3c00
3c00
3c00
7800
7800
7800
7800
f000
f200
f600
fc00
f800
7000
ENDCHAR
STARTCHAR zacute
ENCODING 188
SWIDTH 389 0
DWIDTH 13 0
BBX 15 24 -1 -2
BITMAP
000e
001e
003e
0078
00e0
00c0
0000
1ffc
1ffc
3ff8
2030
0060
00c0
0180
0300
0600
0c00
1800
3000
7c10
ff38
efb8
87f0
01e0
ENDCHAR
STARTCHAR doubleacute
ENCODING 189
SWIDTH 333 0
DWIDTH 11 0
BBX 11 7 0 18
BITMAP
38e0
38e0
71c0
71c0
6180
e380
c300
ENDCHAR
STARTCHAR zcaron
ENCODING 190
SWIDTH 389 0
DWIDTH 13 0
BBX 14 24 -1 -2
BITMAP
0c0c
061c
0738
03f0
03e0
01c0
0000
1ffc
1ffc
3ff8
2030
0060
00c0
0180
0300
0600
0c00
1800
3000
7c10
ff38
efb8
87f0
01e0
ENDCHAR
STARTCHAR zabovedot
ENCODING 191
SWIDTH 389 0
DWIDTH 13 0
BBX 14 22 -1 -2
BITMAP
00c0
01e0
01e0
00c0
0000
1ffc
1ffc
3ff8
2030
0060
00c0
0180
0300
0600
0c00
1800
3000
7c10
ff38
efb8
87f0
01e0
ENDCHAR
STARTCHAR Racute
ENCODING 192
SWIDTH 667 0
DWIDTH 22 0
BBX 21 30 -1 0
BITMAP
000070
0000f0
0001f0
0003c0
000700
000600
000000
07ffc0
01fff0
01f1f8
01f0f8
03e0f8
03e0f8
03e0f8
03e1f0
07c1f0
07c3e0
07cfc0
07ff00
0fbe00
0fbf00
0f9f00
0f9f80
0f8f80
0f0f80
1f07c0
1f07c0
1f07e0
3f03e0
ffc3f8
ENDCHAR
STARTCHAR Aacute
ENCODING 193
SWIDTH 667 0
DWIDTH 21 0
BBX 21 30 -1 0
BITMAP
000070
0000f0
0001f0
0003c0
000700
000600
000000
000200
000600
000700
000f00
001f00
001f00
003f00
002f00
006f80
004f80
00cf80
018f80
018780
030780
0207c0
07ffc0
0fffc0
0c07c0
1807c0
1803c0
3003e0
7007e0
fc1ff8
ENDCHAR
STARTCHAR Acircumflex
ENCODING 194
SWIDTH 667 0
DWIDTH 21 0
BBX 21 30 -1 0
BITMAP
000700
000f80
001f80
0039c0
0070c0
006060
000000
000200
000600
000700
000f00
001f00
001f00
003f00
002f00
006f80
004f80
00cf80
018f80
018780
030780
0207c0
07ffc0
0fffc0
0c07c0
1807c0
1803c0
3003e0
7007e0
fc1ff8
ENDCHAR
STARTCHAR Abreve
ENCODING 195
SWIDTH 667 0
DWIDTH 21 0
BBX 21 29 -1 0
BITMAP
001818
001818
001c38
000ff0
0003c0
000000
000200
000600
000700
000f00
001f00
001f00
003f00
002f00
006f80
004f80
00cf80
018f80
018780
030780
0207c0
07ffc0
0fffc0
0c07c0
1807c0
1803c0
3003e0
7007e0
fc1ff8
ENDCHAR
STARTCHAR Adiaeresis
ENCODING 196
SWIDTH 667 0
DWIDTH 21 0
BBX 21 29 -1 0
BITMAP
003060
0078f0
0078f0
003060
000000
000000
000200
000600
000700
000f00
001f00
001f00
003f00
002f00
006f80
004f80
00cf80
018f80
018780
030780
0207c0
07ffc0
0fffc0
0c07c0
1807c0
1803c0
3003e0
7007e0
fc1ff8
ENDCHAR
STARTCHAR Lacute
ENCODING 197
SWIDTH 611 0
DWIDTH 20 0
BBX 20 30 -1 0
BITMAP
000380
000780
000f80
001e00
003800
003000
000000
07fe00
01f800
01f000
01f000
01f000
03e000
03e000
03e000
03e000
07e000
07c000
07c000
07c000
0f8000
0f8000
0f8000
0f8000
1f0010
1f0030
1f0070
3f00e0
3f03e0
ffffe0
ENDCHAR
STARTCHAR Cacute
ENCODING 198
SWIDTH 667 0
DWIDTH 22 0
BBX 21 30 2 0
BITMAP
000038
000078
0000f8
0001e0
000380
000300
000000
003fc8
00fff8
03f078
07c030
0f8030
1f0030
3f0020
3e0020
7e0000
7c0000
7c0000
f80000
f80000
f80000
f80000
f80000
f80000
f80000
7c0040
7c0180
3f0700
0ffc00
03f000
ENDCHAR
STARTCHAR Ccedilla
ENCODING 199
SWIDTH 667 0
DWIDTH 21 0
BBX 21 30 1 -7
BITMAP
003fc8
00fff8
03e078
07c030
0f8030
1f0030
3f0020
3e0020
7e0000
7c0000
7c0000
f80000
f80000
f80000
f80000
f80000
f80000
f80000
7c0040
7c0180
3f0700
0ffc00
03f000
018000
030000
07c000
00e000
086000
0c6000
07c000
ENDCHAR
STARTCHAR Ccaron
ENCODING 200
SWIDTH 667 0
DWIDTH 22 0
BBX 21 30 2 0
BITMAP
003030
001870
001ce0
000fc0
000f80
000700
000000
003fc8
00fff8
03f078
07c030
0f8030
1f0030
3f0020
3e0020
7e0000
7c0000
7c0000
f80000
f80000
f80000
f80000
f80000
f80000
f80000
7c0040
7c0180
3f0700
0ffc00
03f000
ENDCHAR
STARTCHAR Eacute
ENCODING 201
SWIDTH 667 0
DWIDTH 22 0
BBX 22 30 -1 0
BITMAP
000070
0000f0
0001f0
0003c0
000700
000600
000000
07fffc
01f83c
01f01c
01f018
01f018
03e018
03e010
03e080
03e080
07e180
07c780
07ff80
07c700
0f8300
0f8300
0f8200
0f8000
1f0010
1f0030
1f0070
3f00e0
3f03e0
ffffe0
ENDCHAR
STARTCHAR Eogonek
ENCODING 202
SWIDTH 667 0
DWIDTH 22 0
BBX 22 30 -1 -7
BITMAP
07fffc
01f83c
01f01c
01f018
01f018
03e018
03e010
03e080
03e080
07e180
07c780
07ff80
07c700
0f8300
0f8300
0f8200
0f8000
1f0010
1f0030
1f0070
3f00e0
3f03e0
ffffe0
003000
006000
00c000
00c000
00cc00
00fc00
007800
ENDCHAR
STARTCHAR Ediaeresis
ENCODING 203
SWIDTH 667 0
DWIDTH 22 0
BBX 22 29 -1 0
BITMAP
003060
0078f0
0078f0
003060
000000
000000
07fffc
01f83c
01f01c
01f018
01f018
03e018
03e010
03e080
03e080
07e180
07c780
07ff80
07c700
0f8300
0f8300
0f8200
0f8000
1f0010
1f0030
1f0070
3f00e0
3f03e0
ffffe0
ENDCHAR
STARTCHAR Ecaron
ENCODING 204
SWIDTH 667 0
DWIDTH 22 0
BBX 22 30 -1 0
BITMAP
003030
001870
001ce0
000fc0
000f80
000700
000000
07fffc
01f83c
01f01c
01f018
01f018
03e018
03e010
03e080
03e080
07e180
07c780
07ff80
07c700
0f8300
0f8300
0f8200
0f8000
1f0010
1f0030
1f0070
3f00e0
3f03e0
ffffe0
ENDCHAR
STARTCHAR Iacute
ENCODING 205
SWIDTH 389 0
DWIDTH 13 0
BBX 15 30 -1 0
BITMAP
000e
001e
003e
0078
00e0
00c0
0000
07fe
01f8
01f8
01f0
01f0
01f0
03e0
03e0
03e0
03e0
07c0
07c0
07c0
07c0
0f80
0f80
0f80
0f80
1f00
1f00
1f00
3f00
ffc0
ENDCHAR
STARTCHAR Icircumflex
ENCODING 206
SWIDTH 389 0
DWIDTH 13 0
BBX 15 30 -1 0
BITMAP
0070
00f8
01f8
039c
070e
0606
0000
07fe
01f8
01f8
01f0
01f0
01f0
03e0
03e0
03e0
03e0
07c0
07c0
07c0
07c0
0f80
0f80
0f80
0f80
1f00
1f00
1f00
3f00
ffc0
ENDCHAR
STARTCHAR Dcaron
ENCODING 207
SWIDTH 722 0
DWIDTH 23 0
BBX 24 30 -1 0
BITMAP
006060
0030e0
0039c0
001f80
001f00
000e00
000000
0fffc0
03f0f0
01f078
01f03c
03e03e
03e01e
03e01f
07e01f
07c01f
07c01f
07c01f
0fc01f
0f801f
0f803e
0f803e
1f807c
1f007c
1f00f8
1f00f0
3f01e0
3e07c0
7f1f00
fffc00
ENDCHAR
STARTCHAR Dstroke
ENCODING 208
SWIDTH 722 0
DWIDTH 23 0
BBX 24 23 -1 0
BITMAP
0fffc0
03f8f0
01f078
01f03c
03e03e
03e01e
03e01e
03e01f
07e01f
07c01f
3ffc1f
3ffc1f
3ffc3f
0f803f
0f803e
0f803e
1f007c
1f00fc
1f00f8
1f01f0
3e03c0
7f0f80
fffc00
ENDCHAR
STARTCHAR Nacute
ENCODING 209
SWIDTH 722 0
DWIDTH 24 0
BBX 26 30 -1 0
BITMAP
00000e00
00001e00
00003e00
00007800
0000e000
0000c000
00000000
07e01fc0
03f00f80
01f00700
01f80700
01f80600
037c0600
037c0600
033e0c00
023e0c00
063f0c00
061f0c00
061f1800
0c0f9800
0c0f9800
0c07d000
0c07f000
1803f000
1803f000
1803f000
3801e000
3801e000
7c00e000
fe00e000
ENDCHAR
STARTCHAR Ncaron
ENCODING 210
SWIDTH 722 0
DWIDTH 24 0
BBX 26 30 -1 0
BITMAP
000c0c00
00061c00
00073800
0003f000
0003e000
0001c000
00000000
07e01fc0
03f00f80
01f00700
01f80700
01f80600
037c0600
037c0600
033e0c00
023e0c00
063f0c00
061f0c00
061f1800
0c0f9800
0c0f9800
0c07d000
0c07f000
1803f000
1803f000
1803f000
3801e000
3801e000
7c00e000
fe00e000
ENDCHAR
STARTCHAR Oacute
ENCODING 211
SWIDTH 722 0
DWIDTH 23 0
BBX 22 30 1 0
BITMAP
000070
0000f0
0001f0
0003c0
000700
000600
000000
001f80
00ffe0
01e0f0
03c078
078078
0f007c
1f007c
3e007c
3e007c
3e007c
7c00fc
7c00f8
fc00f8
f801f0
f801f0
f801f0
f803e0
f803c0
780780
780f00
3c1e00
1ffc00
07e000
ENDCHAR
STARTCHAR Ocircumflex
ENCODING 212
SWIDTH 722 0
DWIDTH 23 0
BBX 22 30 1 0
BITMAP
000700
000f80
001f80
0039c0
0070e0
00e070
000000
001f80
00ffe0
01e0f0
03c078
078078
0f007c
1f007c
3e007c
3e007c
3e007c
7c00fc
7c00f8
fc00f8
f801f0
f801f0
f801f0
f803e0
f803c0
780780
780f00
3c1e00
1ffc00
07e000
ENDCHAR
STARTCHAR Odoubleacute
ENCODING 213
SWIDTH 722 0
DWIDTH 23 0
BBX 22 31 1 0
BITMAP
00071c
00071c
000e38
000e38
000c30
001c70
001860
000000
001f80
00ffe0
01e0f0
03c078
078078
0f007c
1f007c
3e007c
3e007c
3e007c
7c00fc
7c00f8
fc00f8
f801f0
f801f0
f801f0
f803e0
f803c0
780780
780f00
3c1e00
1ffc00
07e000
ENDCHAR
STARTCHAR Odiaeresis
ENCODING 214
SWIDTH 722 0
DWIDTH 23 0
BBX 22 29 1 0
BITMAP
003060
0078f0
0078f0
003060
000000
000000
001f80
00ffe0
01e0f0
03c078
078078
0f007c
1f007c
3e007c
3e007c
3e007c
7c00fc
7c00f8
fc00f8
f801f0
f801f0
f801f0
f803e0
f803c0
780780
780f00
3c1e00
1ffc00
07e000
ENDCHAR
STARTCHAR multiply
ENCODING 215
SWIDTH 570 0
DWIDTH 19 0
BBX 17 17 1 0
BITMAP
200200
700700
f80f80
7c1f00
3e3e00
1f7c00
0ff800
07f000
03e000
07f000
0ff800
1f7c00
3e3e00
7c1f00
f80f80
700700
200200
ENDCHAR
STARTCHAR Rcaron
ENCODING 216
SWIDTH 667 0
DWIDTH 22 0
BBX 21 30 -1 0
BITMAP
006060
0030e0
0039c0
001f80
001f00
000e00
000000
07ffc0
01fff0
01f1f8
01f0f8
03e0f8
03e0f8
03e0f8
03e1f0
07c1f0
07c3e0
07cfc0
07ff00
0fbe00
0fbf00
0f9f00
0f9f80
0f8f80
0f0f80
1f07c0
1f07c0
1f07e0
3f03e0
ffc3f8
ENDCHAR
STARTCHAR Uring
ENCODING 217
SWIDTH 722 0
DWIDTH 24 0
BBX 23 32 2 0
BITMAP
001c00
003e00
007300
006300
006300
007700
003e00
001c00
000000
7fe07e
1f803c
1f8018
1f0018
1f0030
3f0030
3e0030
3e0060
3e0060
7e0060
7c00c0
7c00c0
7c00c0
f80180
f80180
f80180
f80300
f80300
f80600
7c0e00
7e1c00
3ff800
0fe000
ENDCHAR
STARTCHAR Uacute
ENCODING 218
SWIDTH 722 0
DWIDTH 24 0
BBX 23 30 3 0
BITMAP
0001c0
0003c0
0007c0
000f00
001c00
001800
000000
7fe07e
1f803c
1f8018
1f0018
1f0030
3f0030
3e0030
3e0060
3e0060
7e0060
7c00c0
7c00c0
7c00c0
f80180
f80180
f80180
f80300
f80300
f80600
7c0e00
7e1c00
3ff800
0fe000
ENDCHAR
STARTCHAR Udoubleacute
ENCODING 219
SWIDTH 722 0
DWIDTH 24 0
BBX 23 31 2 0
BITMAP
001c70
001c70
0038e0
0038e0
0030c0
0071c0
006180
000000
7fe07e
1f803c
1f8018
1f0018
1f0030
3f0030
3e0030
3e0060
3e0060
7e0060
7c00c0
7c00c0
7c00c0
f80180
f80180
f80180
f80300
f80300
f80600
7c0e00
7e1c00
3ff800
0fe000
ENDCHAR
STARTCHAR Udiaeresis
ENCODING 220
SWIDTH 722 0
DWIDTH 24 0
BBX 23 29 3 0
BITMAP
0060c0
00f1e0
00f1e0
0060c0
000000
000000
7fe07e
1f803c
1f8018
1f0018
1f0030
3f0030
3e0030
3e0060
3e0060
7e0060
7c00c0
7c00c0
7c00c0
f80180
f80180
f80180
f80300
f80300
f80600
7c0e00
7e1c00
3ff800
0fe000
ENDCHAR
STARTCHAR Yacute
ENCODING 221
SWIDTH 611 0
DWIDTH 20 0
BBX 19 30 2 0
BITMAP
000380
000780
000f80
001e00
003800
003000
000000
ff8fe0
7e03c0
3e0380
3e0300
1e0600
1f0600
1f0c00
0f1800
0f9800
0fb000
0fe000
07c000
07c000
07c000
0f8000
0f8000
0f8000
0f8000
1f0000
1f0000
1f0000
3f0000
ffc000
ENDCHAR
STARTCHAR Tcedilla
ENCODING 222
SWIDTH 611 0
DWIDTH 20 0
BBX 19 30 2 -7
BITMAP
3fffe0
3cf9e0
30f8e0
70f8c0
61f0c0
61f080
41f080
01f000
03e000
03e000
03e000
03e000
07c000
07c000
07c000
078000
0f8000
0f8000
0f8000
1f0000
1f0000
3f8000
ffe000
004000
00c000
01f000
003800
021800
031800
01f000
ENDCHAR
STARTCHAR ssharp
ENCODING 223
SWIDTH 500 0
DWIDTH 16 0
BBX 23 30 -6 -7
BITMAP
0003f0
00073c
000e1e
000e1e
001e1e
001c1e
003c3c
003c38
003c70
003d80
003dc0
0078e0
007870
007878
007838
00f038
00f038
00f038
00f078
01e070
01e0f0
01e1e0
03efc0
03c000
03c000
038000
678000
e70000
ee0000
7c0000
ENDCHAR
STARTCHAR racute
ENCODING 224
SWIDTH 389 0
DWIDTH 13 0
BBX 14 22 0 0
BITMAP
001c
003c
007c
00f0
01c0
0180
0000
0f18
7f3c
1e7c
1efc
1f98
1f00
1e00
3e00
3c00
3c00
3c00
7800
7800
7800
f800
ENDCHAR
STARTCHAR aacute
ENCODING 225
SWIDTH 500 0
DWIDTH 16 0
BBX 15 24 0 0
BITMAP
000e
001e
003e
0078
00e0
00c0
0000
0000
0000
039c
0fdc
1e7c
3c3c
7838
7878
f878
f078
f0f0
f0f0
f0f4
f1ec
7f78
7e70
1c60
ENDCHAR
STARTCHAR acircumflex
ENCODING 226
SWIDTH 500 0
DWIDTH 16 0
BBX 14 24 0 0
BITMAP
00e0
01f0
03f0
0738
0e18
0c0c
0000
0000
0000
039c
0fdc
1e7c
3c3c
7838
7878
f878
f078
f0f0
f0f0
f0f4
f1ec
7f78
7e70
1c60
ENDCHAR
STARTCHAR abreve
ENCODING 227
SWIDTH 500 0
DWIDTH 16 0
BBX 14 21 0 0
BITMAP
0c0c
0c0c
0e1c
07f8
01e0
0000
039c
0fdc
1e7c
3c3c
7838
7878
f878
f078
f0f0
f0f0
f0f4
f1ec
7f78
7e70
1c60
ENDCHAR
STARTCHAR adiaeresis
ENCODING 228
SWIDTH 500 0
DWIDTH 16 0
BBX 15 21 0 0
BITMAP
060c
0f1e
0f1e
060c
0000
0000
039c
0fdc
1e7c
3c3c
7838
7878
f878
f078
f0f0
f0f0
f0f4
f1ec
7f78
7e70
1c60
ENDCHAR
STARTCHAR lacute
ENCODING 229
SWIDTH 278 0
DWIDTH 9 0
BBX 13 30 1 0
BITMAP
0038
0078
00f8
01e0
0380
0300
0000
0380
3f80
1f80
0780
0f00
0f00
0f00
1e00
1e00
1e00
1e00
3c00
3c00
3c00
7c00
7800
7800
7800
f200
f600
fc00
f800
7000
ENDCHAR
STARTCHAR cacute
ENCODING 230
SWIDTH 444 0
DWIDTH 14 0
BBX 15 22 1 0
BITMAP
000e
001e
003e
0078
00e0
00c0
0000
01f0
07f8
1e78
3c78
3c30
7800
7800
f000
f000
f000
f020
f060
78c0
7f80
1e00
ENDCHAR
STARTCHAR ccedilla
ENCODING 231
SWIDTH 444 0
DWIDTH 14 0
BBX 13 22 1 -7
BITMAP
01f0
07f8
0e78
1c78
3c30
7800
7800
f000
f000
f000
f020
f060
78c0
7f80
1e00
0800
1800
3e00
0700
4300
6300
3e00
ENDCHAR
STARTCHAR ccaron
ENCODING 232
SWIDTH 444 0
DWIDTH 14 0
BBX 14 22 1 0
BITMAP
0c0c
061c
0738
03f0
03e0
01c0
0000
01f0
07f8
1e78
3c78
3c30
7800
7800
f000
f000
f000
f020
f060
78c0
7f80
1e00
ENDCHAR
STARTCHAR eacute
ENCODING 233
SWIDTH 444 0
DWIDTH 14 0
BBX 13 23 1 0
BITMAP
0038
0078
00f8
01e0
0380
0300
0000
0000
03e0
0ff0
1e70
3c70
38f0
78e0
71c0
f780
fc00
f000
f020
f060
78c0
7f80
1e00
ENDCHAR
STARTCHAR eogonek
ENCODING 234
SWIDTH 444 0
DWIDTH 14 0
BBX 12 22 1 -7
BITMAP
03e0
0ff0
1e70
3c70
38f0
78e0
71c0
f780
fc00
f000
f020
f060
78c0
7f80
1e00
0600
0c00
1800
1800
1980
1f80
0f00
ENDCHAR
STARTCHAR ediaeresis
ENCODING 235
SWIDTH 444 0
DWIDTH 14 0
BBX 15 21 1 0
BITMAP
060c
0f1e
0f1e
060c
0000
0000
03e0
0ff0
1e70
3c70
38f0
78e0
71c0
f780
fc00
f000
f020
f060
78c0
7f80
1e00
ENDCHAR
STARTCHAR ecaron
ENCODING 236
SWIDTH 444 0
DWIDTH 14 0
BBX 13 22 1 0
BITMAP
1818
0c38
0e70
07e0
07c0
0380
0000
03e0
0ff0
1e70
3c70
38f0
78e0
71c0
f780
fc00
f000
f020
f060
78c0
7f80
1e00
ENDCHAR
STARTCHAR iacute
ENCODING 237
SWIDTH 278 0
DWIDTH 9 0
BBX 10 22 1 0
BITMAP
01c0
03c0
07c0
0f00
1c00
1800
0000
1e00
fe00
3c00
3c00
3c00
7800
7800
7800
7800
f000
f200
f600
fc00
f800
7000
ENDCHAR
STARTCHAR icircumflex
ENCODING 238
SWIDTH 278 0
DWIDTH 9 0
BBX 11 23 1 0
BITMAP
0700
0f80
1f80
39c0
70c0
6060
0000
0000
1e00
fe00
3c00
3c00
3c00
7800
7800
7800
7800
f000
f200
f600
fc00
f800
7000
ENDCHAR
STARTCHAR dcaron
ENCODING 239
SWIDTH 690 0
DWIDTH 23 0
BBX 24 26 0 0
BITMAP
00000e
00001f
00001f
00039f
001f8f
000786
000786
00070c
000f18
000f30
000f00
03de00
0ffe00
1f3e00
3c1e00
7c1e00
783c00
f83c00
f03c00
f03800
f07800
f07800
f0f600
7ffc00
7f7800
1e3000
ENDCHAR
STARTCHAR dstroke
ENCODING 240
SWIDTH 660 0
DWIDTH 22 0
BBX 23 23 0 0
BITMAP
000380
001f80
000780
000780
03fffe
03fffe
000f00
000f00
03de00
0ffe00
1f3e00
3c1e00
7c1e00
783c00
f83c00
f03c00
f03800
f07800
f07800
f0f600
7ffc00
7f7800
1e3000
ENDCHAR
STARTCHAR nacute
ENCODING 241
SWIDTH 556 0
DWIDTH 18 0
BBX 15 22 1 0
BITMAP
001c
003c
007c
00f0
01c0
0180
0000
1e3c
fe7e
1cfe
3d9e
3e1e
3c3c
3c3c
3c3c
7878
7878
7878
f0f2
f0f6
f0fc
f078
ENDCHAR
STARTCHAR ncaron
ENCODING 242
SWIDTH 556 0
DWIDTH 18 0
BBX 15 22 1 0
BITMAP
1818
0c38
0e70
07e0
07c0
0380
0000
1e3c
fe7e
1cfe
3d9e
3e1e
3c3c
3c3c
3c3c
7878
7878
7878
f0f2
f0f6
f0fc
f078
ENDCHAR
STARTCHAR oacute
ENCODING 243
SWIDTH 500 0
DWIDTH 16 0
BBX 16 23 1 0
BITMAP
0007
000f
001f
003c
0070
0060
0000
0000
01f0
073c
1e1c
1c1e
3c1e
7c1e
783e
f83e
f83c
f07c
f078
f070
70f0
79e0
1f80
ENDCHAR
STARTCHAR ocircumflex
ENCODING 244
SWIDTH 500 0
DWIDTH 16 0
BBX 16 23 1 0
BITMAP
0038
007c
00fc
01ce
0386
0303
0000
0000
01f0
073c
1e1c
1c1e
3c1e
7c1e
783e
f83e
f83c
f07c
f078
f070
70f0
79e0
1f80
ENDCHAR
STARTCHAR odoubleacute
ENCODING 245
SWIDTH 500 0
DWIDTH 16 0
BBX 16 23 1 0
BITMAP
01c7
01c7
038e
038e
030c
071c
0618
0000
01f0
073c
1e1c
1c1e
3c1e
7c1e
783e
f83e
f83c
f07c
f078
f070
70f0
79e0
1f80
ENDCHAR
STARTCHAR odiaeresis
ENCODING 246
SWIDTH 500 0
DWIDTH 16 0
BBX 16 21 1 0
BITMAP
0306
078f
078f
0306
0000
0000
01f0
073c
1e1c
1c1e
3c1e
7c1e
783e
f83e
f83c
f07c
f078
f070
70f0
79e0
1f80
ENDCHAR
STARTCHAR division
ENCODING 247
SWIDTH 570 0
DWIDTH 19 0
BBX 17 17 1 0
BITMAP
01c000
03e000
03e000
03e000
01c000
000000
000000
ffff80
ffff80
ffff80
000000
000000
01c000
03e000
03e000
03e000
01c000
ENDCHAR
STARTCHAR rcaron
ENCODING 248
SWIDTH 389 0
DWIDTH 13 0
BBX 14 22 0 0
BITMAP
1818
0c38
0e70
07e0
07c0
0380
0000
0f18
7f3c
1e7c
1efc
1f98
1f00
1e00
3e00
3c00
3c00
3c00
7800
7800
7800
f800
ENDCHAR
STARTCHAR uring
ENCODING 249
SWIDTH 556 0
DWIDTH 18 0
BBX 15 24 1 0
BITMAP
0380
07c0
0e60
0c60
0c60
0ee0
07c0
0380
0000
1e1e
fe1e
3c1e
3c3c
3c3c
3c3c
787c
7878
78f8
70f8
f0f0
f1f2
f376
fe7c
7878
ENDCHAR
STARTCHAR uacute
ENCODING 250
SWIDTH 556 0
DWIDTH 18 0
BBX 15 23 1 0
BITMAP
000e
001e
003e
0078
00e0
00c0
0000
0000
1e1e
fe1e
3c1e
3c3c
3c3c
3c3c
787c
7878
78f8
70f8
f1f0
f3f2
f6f6
fcfc
7878
ENDCHAR
STARTCHAR udoubleacute
ENCODING 251
SWIDTH 556 0
DWIDTH 18 0
BBX 15 23 1 0
BITMAP
038e
038e
071c
071c
0618
0e38
0c30
0000
1e1e
fe1e
3c1e
3c3c
3c3c
3c3c
787c
7878
78f8
70f8
f0f0
f1f2
f376
fe7c
7878
ENDCHAR
STARTCHAR udiaeresis
ENCODING 252
SWIDTH 556 0
DWIDTH 18 0
BBX 15 21 1 0
BITMAP
060c
0f1e
0f1e
060c
0000
0000
1e1e
fe1e
3c1e
3c3c
3c3c
3c3c
787c
7878
78f8
70f8
f1f0
f3f2
f6f6
fcfc
7878
ENDCHAR
STARTCHAR yacute
ENCODING 253
SWIDTH 444 0
DWIDTH 15 0
BBX 17 30 -2 -7
BITMAP
000380
000780
000f80
001e00
003800
003000
000000
000000
038600
1f8f00
078f00
078700
03c300
03c200
03c600
03c400
03cc00
01e800
01f800
01f000
01f000
01e000
01e000
01c000
018000
018000
630000
fe0000
fc0000
700000
ENDCHAR
STARTCHAR tcedilla
ENCODING 254
SWIDTH 278 0
DWIDTH 9 0
BBX 9 27 1 -7
BITMAP
0100
0300
0700
0e00
3e00
7f80
ff80
3c00
3c00
3c00
7800
7800
7800
7800
f000
f200
f600
fc00
f800
7000
0800
1800
3e00
0700
4300
6300
3e00
ENDCHAR
STARTCHAR abovedot
ENCODING 255
SWIDTH 333 0
DWIDTH 11 0
BBX 4 4 3 17
BITMAP
60
f0
f0
60
ENDCHAR
ENDFONT
